<?xml version="1.0" encoding="UTF-8"?>
<svg width="240px" height="56px" viewBox="0 0 240 56" version="1.1" xmlns="http://www.w3.org/2000/svg" xmlns:xlink="http://www.w3.org/1999/xlink">
    <!-- Generator: sketchtool 54.1 (76490) - https://sketchapp.com -->
    <title>Sunrise Banks Logo</title>
    <desc>Created with sketchtool.</desc>
    <defs>
        <polygon id="path-1" points="0.0937344845 0.117894737 1.82485193 0.117894737 1.82485193 1.86386771 0.0937344845 1.86386771"></polygon>
        <polygon id="path-3" points="0.0942231237 0.218398962 1.82606942 0.218398962 1.82606942 1.96491228 0.0942231237 1.96491228"></polygon>
        <polygon id="path-5" points="0 0.134645614 9.88597972 0.134645614 9.88597972 10.8861544 0 10.8861544"></polygon>
        <polygon id="path-7" points="0.190855984 0.134645614 10.0768357 0.134645614 10.0768357 10.8861544 0.190855984 10.8861544"></polygon>
    </defs>
    <g id="home" stroke="none" stroke-width="1" fill="none" fill-rule="evenodd">
        <g id="Home-/-Desktop-(top-banner)" transform="translate(-115.000000, -134.000000)">
            <g id="Sunrise-Logo-Copy-7" transform="translate(115.000000, 134.000000)">
                <path d="M148.167724,28.0632456 C148.167724,28.8683684 147.52099,29.5214561 146.722856,29.5214561 C145.925209,29.5214561 145.278718,28.8683684 145.278718,28.0632456 C145.278718,27.2581228 145.925209,26.6055263 146.722856,26.6055263 C147.52099,26.6055263 148.167724,27.2581228 148.167724,28.0632456" id="Fill-1" fill="#F7D721"></path>
                <path d="M146.9483,21.8809193 C147.25329,22.6241474 146.90327,23.4766737 146.166475,23.7849193 C145.430166,24.0929193 144.585298,23.7397263 144.280065,22.996007 C143.974345,22.2525333 144.325339,21.3997614 145.060917,21.0917614 C145.798686,20.784007 146.642824,21.1372 146.9483,21.8809193" id="Fill-3" fill="#F7D721"></path>
                <path d="M143.477598,16.6390737 C144.041817,17.2079158 144.041817,18.1314246 143.477598,18.7010035 C142.913623,19.2696 141.999627,19.2698456 141.434921,18.7010035 C140.871189,18.1314246 140.871189,17.2079158 141.434921,16.6390737 C141.998653,16.069986 142.913379,16.069986 143.477598,16.6390737" id="Fill-5" fill="#F7D721"></path>
                <path d="M138.283083,13.1376246 C139.019635,13.4453789 139.370142,14.2981509 139.064909,15.0413789 C138.759675,15.784607 137.915051,16.1387825 137.177769,15.8295544 C136.440974,15.5218 136.090953,14.6695193 136.396187,13.9265368 C136.700933,13.1823263 137.546288,12.8291333 138.283083,13.1376246" id="Fill-7" fill="#F7D721"></path>
                <path d="M132.156292,11.9076386 C132.953452,11.907393 133.600673,12.5602351 133.600673,13.3656035 C133.5997,14.1692526 132.954183,14.822586 132.156292,14.822586 C131.358645,14.8220947 130.711424,14.1697439 130.711424,13.3656035 C130.711424,12.5602351 131.358158,11.9076386 132.156292,11.9076386" id="Fill-9" fill="#F7D721"></path>
                <path d="M126.028771,13.1376246 C126.765566,12.8291333 127.610434,13.1828175 127.915667,13.9265368 C128.220901,14.6697649 127.871367,15.5225368 127.134572,15.8305368 C126.397533,16.1380456 125.552422,15.7853439 125.247919,15.0423614 C124.942199,14.2983965 125.292219,13.4458702 126.028771,13.1376246" id="Fill-11" fill="#F7D721"></path>
                <path d="M120.834499,16.639786 C121.398231,16.0704526 122.313201,16.0704526 122.87742,16.6400316 C123.441152,17.2086281 123.442126,18.1321368 122.87742,18.7009789 C122.313201,19.2698211 121.398718,19.2700667 120.834986,18.702207 C120.270523,18.1318912 120.270767,17.2091193 120.834499,16.639786" id="Fill-13" fill="#F7D721"></path>
                <path d="M117.364041,21.881386 C117.669517,21.1381579 118.514629,20.7849649 119.251424,21.0932105 C119.987489,21.4012105 120.338483,22.2534912 120.032763,22.9967193 C119.727043,23.7399474 118.882418,24.0931404 118.14757,23.7858772 C117.409558,23.477386 117.059781,22.6255965 117.364041,21.881386" id="Fill-15" fill="#F7D721"></path>
                <path d="M116.145103,28.0637123 C116.145103,27.2595719 116.792325,26.6067298 117.590215,26.6067298 C118.387132,26.6069754 119.034353,27.2595719 119.03411,28.0637123 C119.03411,28.8688351 118.387375,29.5219228 117.590702,29.5219228 C116.792325,29.5219228 116.145347,28.8693263 116.145103,28.0637123" id="Fill-17" fill="#F7D721"></path>
                <path d="M117.364041,34.2469965 C117.059538,33.5032772 117.409558,32.6502596 118.146596,32.3422596 C118.882905,32.0352421 119.728746,32.3876982 120.033006,33.1311719 C120.338483,33.8751368 119.988219,34.7269263 119.252398,35.0349263 C118.514629,35.3436632 117.670004,34.9909614 117.364041,34.2469965" id="Fill-19" fill="#F7D721"></path>
                <path d="M120.834961,39.4881298 C120.270742,38.9195333 120.270742,37.9962702 120.834961,37.4269368 C121.399424,36.8576035 122.314394,36.8576035 122.878126,37.4269368 C123.441371,37.9962702 123.442101,38.9190421 122.878613,39.487393 C122.313907,40.0577088 121.399424,40.0572175 120.834961,39.4881298" id="Fill-21" fill="#F7D721"></path>
                <path d="M126.029501,42.9898 C125.292949,42.6822912 124.942929,41.8292737 125.248162,41.0858 C125.553882,40.3425719 126.398751,39.9893789 127.134815,40.2973789 C127.871367,40.6053789 128.221874,41.4579053 127.917128,42.2006421 C127.611408,42.9450982 126.76727,43.2978 126.029501,42.9898" id="Fill-23" fill="#F7D721"></path>
                <path d="M132.156998,44.2202772 C131.358864,44.2202772 130.712373,43.5674351 130.712373,42.7620667 C130.712373,41.9571895 131.359351,41.3043474 132.156998,41.304593 C132.954158,41.304593 133.601623,41.9571895 133.601623,42.7620667 C133.601623,43.5681719 132.954888,44.2190491 132.156998,44.2202772" id="Fill-25" fill="#F7D721"></path>
                <path d="M138.284276,42.9898 C137.547481,43.2978 136.702126,42.9450982 136.396892,42.2006421 C136.092146,41.4571684 136.442653,40.6048877 137.178231,40.2966421 C137.915513,39.9893789 138.760381,40.3413439 139.065615,41.0850632 C139.370848,41.8292737 139.020341,42.6805719 138.284276,42.9898" id="Fill-27" fill="#F7D721"></path>
                <path d="M143.478548,39.4874175 C142.914329,40.0569965 141.999846,40.0569965 141.43514,39.4874175 C140.871651,38.9183298 140.871651,37.9953123 141.43514,37.4264702 C141.999846,36.8568912 142.913598,36.8568912 143.478061,37.4254877 C144.042767,37.9953123 144.041793,38.9183298 143.478548,39.4874175" id="Fill-29" fill="#F7D721"></path>
                <path d="M146.949006,34.2453263 C146.643529,34.9892912 145.798661,35.3429754 145.060892,35.0344842 C144.325314,34.7262386 143.975051,33.8739579 144.280041,33.1312211 C144.585274,32.3872561 145.430142,32.0335719 146.16572,32.3415719 C146.903732,32.6500632 147.253266,33.5020982 146.949006,34.2453263" id="Fill-31" fill="#F7D721"></path>
                <path d="M152.283067,28.0632456 C152.283067,28.7266491 151.750247,29.2642982 151.092803,29.2642982 C150.435846,29.2642982 149.90327,28.7266491 149.90327,28.0632456 C149.90327,27.3998421 150.435846,26.862193 151.092803,26.862193 C151.750247,26.862193 152.283067,27.3998421 152.283067,28.0632456" id="Fill-33" fill="#ED822A"></path>
                <path d="M150.751059,20.2913789 C151.002499,20.9039404 150.714304,21.6063965 150.107002,21.8603614 C149.4997,22.1143263 148.803067,21.8227825 148.55187,21.2104667 C148.300187,20.5976596 148.588868,19.8952035 149.195684,19.6412386 C149.802742,19.3875193 150.499619,19.6785719 150.751059,20.2913789" id="Fill-35" fill="#ED822A"></path>
                <path d="M146.388024,13.7027333 C146.852933,14.1711193 146.852933,14.9320316 146.387781,15.4011544 C145.923359,15.8695404 145.169525,15.8695404 144.704617,15.4011544 C144.240438,14.9315404 144.240438,14.1711193 144.704617,13.7022421 C145.169525,13.2338561 145.923359,13.2333649 146.388024,13.7027333" id="Fill-37" fill="#ED822A"></path>
                <path d="M139.858564,9.30039649 C140.465136,9.55362456 140.754061,10.2568175 140.502134,10.8698702 C140.250937,11.4816947 139.554061,11.7727474 138.947245,11.5192737 C138.339456,11.2653088 138.051262,10.5628526 138.302702,9.95029123 C138.554872,9.33772982 139.251018,9.04643158 139.858564,9.30039649" id="Fill-39" fill="#ED822A"></path>
                <path d="M132.156292,7.75450175 C132.813249,7.75450175 133.346312,8.29190526 133.346312,8.95555439 C133.346312,9.61846667 132.813249,10.1558702 132.156292,10.1561158 C131.498604,10.1561158 130.966272,9.61822105 130.966272,8.95506316 C130.966272,8.29239649 131.499335,7.75401053 132.156292,7.75450175" id="Fill-41" fill="#ED822A"></path>
                <path d="M124.453996,9.30039649 C125.060811,9.04667719 125.757688,9.33772982 126.008884,9.95053684 C126.260325,10.5635895 125.9714,11.2653088 125.365314,11.5192737 C124.756795,11.7734842 124.061136,11.4819404 123.809696,10.8696246 C123.558012,10.2573088 123.846207,9.55362456 124.453996,9.30039649" id="Fill-43" fill="#ED822A"></path>
                <path d="M117.924535,13.7029789 C118.389444,13.2343474 119.143034,13.234593 119.607456,13.7032246 C120.072365,14.1721018 120.072365,14.9325228 119.607456,15.4014 C119.142791,15.871014 118.388957,15.8700316 117.924535,15.4014 C117.460114,14.933014 117.459627,14.1716105 117.924535,13.7029789" id="Fill-45" fill="#ED822A"></path>
                <path d="M113.561963,20.2918456 C113.812917,19.6792842 114.509793,19.3884772 115.116852,19.6419509 C115.723911,19.8959158 116.011862,20.5983719 115.760665,21.2109333 C115.508982,21.8244772 114.812592,22.1150386 114.205777,21.8608281 C113.598718,21.6071088 113.309793,20.904407 113.561963,20.2918456" id="Fill-47" fill="#ED822A"></path>
                <path d="M112.029493,28.0637123 C112.029493,27.4005544 112.563286,26.8633965 113.220487,26.8629053 C113.877444,26.8629053 114.40929,27.4008 114.409777,28.0637123 C114.410264,28.7278526 113.876957,29.2650105 113.22,29.2650105 C112.563286,29.2650105 112.028763,28.7273614 112.029493,28.0637123" id="Fill-49" fill="#ED822A"></path>
                <path d="M113.561963,35.8358246 C113.310767,35.2235088 113.599205,34.5210526 114.20602,34.2663509 C114.813566,34.0126316 115.508982,34.3044211 115.760665,34.9172281 C116.012836,35.5300351 115.723911,36.2322456 115.116852,36.4859649 C114.51028,36.7399298 113.812673,36.4491228 113.561963,35.8358246" id="Fill-51" fill="#ED822A"></path>
                <path d="M117.925022,42.4249368 C117.460114,41.9560596 117.460844,41.195393 117.925022,40.7260246 C118.389444,40.257393 119.143034,40.257393 119.607456,40.7267614 C120.073582,41.1956386 120.073095,41.9563053 119.607456,42.4249368 C119.143521,42.8930772 118.389444,42.8940596 117.925022,42.4249368" id="Fill-53" fill="#ED822A"></path>
                <path d="M124.454702,46.8270526 C123.847643,46.5733333 123.559692,45.8701404 123.810645,45.2580702 C124.062572,44.6452632 124.757988,44.3542105 125.36529,44.6084211 C125.973566,44.8621404 126.261761,45.5643509 126.009347,46.1771579 C125.75815,46.7894737 125.061761,47.0817544 124.454702,46.8270526" id="Fill-55" fill="#ED822A"></path>
                <path d="M132.156292,48.3729228 C131.499335,48.3726772 130.967245,47.8345368 130.966759,47.1711333 C130.966759,46.5084667 131.499335,45.9715544 132.157022,45.9713088 C132.81471,45.9713088 133.347286,46.5092035 133.346799,47.1718702 C133.346799,47.8345368 132.813736,48.3736596 132.156292,48.3729228" id="Fill-57" fill="#ED822A"></path>
                <path d="M139.858564,46.8270526 C139.251262,47.0805263 138.555602,46.7894737 138.303675,46.1766667 C138.052235,45.5641053 138.340917,44.8616491 138.947976,44.6076842 C139.555765,44.3534737 140.252154,44.6452632 140.502621,45.2580702 C140.754061,45.8701404 140.465866,46.5733333 139.858564,46.8270526" id="Fill-59" fill="#ED822A"></path>
                <path d="M146.388024,42.4249368 C145.923359,42.8930772 145.169525,42.8923404 144.704617,42.4242 C144.240438,41.9550772 144.241168,41.195393 144.705103,40.7260246 C145.170499,40.2556737 145.924089,40.2566561 146.388024,40.7260246 C146.852933,41.1946561 146.853663,41.9560596 146.388024,42.4249368" id="Fill-61" fill="#ED822A"></path>
                <path d="M150.751059,35.8358246 C150.499619,36.448386 149.802742,36.7387018 149.195684,36.4854737 C148.588868,36.2315088 148.300917,35.5290526 148.552357,34.9162456 C148.803067,34.3027018 149.500673,34.0118947 150.107002,34.2663509 C150.714304,34.5205614 151.002986,35.2227719 150.751059,35.8358246" id="Fill-63" fill="#ED822A"></path>
                <path d="M156.16688,28.0632456 C156.16688,28.6355263 155.70611,29.0999825 155.138483,29.0999825 C154.571343,29.0999825 154.111302,28.6355263 154.111302,28.0632456 C154.111302,27.4907193 154.571343,27.0260175 155.138483,27.0260175 C155.70611,27.0260175 156.16688,27.4907193 156.16688,28.0632456" id="Fill-65" fill="#E4352F"></path>
                <path d="M154.338718,18.7915368 C154.556081,19.3203439 154.307075,19.9275018 153.783018,20.1468351 C153.258231,20.3661684 152.656771,20.114414 152.439895,19.5851158 C152.222775,19.0560632 152.471538,18.4491509 152.995838,18.2305544 C153.520381,18.0112211 154.120868,18.2627298 154.338718,18.7915368" id="Fill-67" fill="#E4352F"></path>
                <path d="M149.134442,10.9316667 C149.535091,11.336193 149.535091,11.9934561 149.134442,12.3984737 C148.732333,12.8037368 148.081947,12.803 147.680081,12.3984737 C147.279189,11.9932105 147.279189,11.336193 147.680081,10.9316667 C148.081947,10.5268947 148.732333,10.5268947 149.134442,10.9316667" id="Fill-69" fill="#E4352F"></path>
                <path d="M141.34469,5.67997193 C141.868503,5.89905965 142.117509,6.50572632 141.900146,7.03477895 C141.683513,7.56432281 141.082296,7.81509474 140.558239,7.5957614 C140.033452,7.3769193 139.783959,6.77025263 140.001323,6.24095439 C140.218199,5.71214737 140.819903,5.4606386 141.34469,5.67997193" id="Fill-71" fill="#E4352F"></path>
                <path d="M132.156292,3.83570526 C132.723432,3.83570526 133.183716,4.30065263 133.183716,4.87317895 C133.183959,5.44595088 132.723432,5.90967018 132.156292,5.90942456 C131.588665,5.90967018 131.127895,5.44619649 131.127895,4.87317895 C131.128625,4.30065263 131.588665,3.83570526 132.156292,3.83570526" id="Fill-73" fill="#E4352F"></path>
                <path d="M122.967627,5.68046316 C123.491197,5.4606386 124.093144,5.7126386 124.310507,6.24169123 C124.528357,6.77049825 124.278377,7.37741053 123.75359,7.59649825 C123.23002,7.81534035 122.62856,7.56481404 122.41144,7.03551579 C122.194077,6.50597193 122.443327,5.89979649 122.967627,5.68046316" id="Fill-75" fill="#E4352F"></path>
                <path d="M115.178361,10.9321333 C115.579254,10.527607 116.230613,10.5278526 116.631992,10.9321333 C117.033371,11.3373965 117.033128,11.9939228 116.631992,12.399186 C116.230613,12.8042035 115.57974,12.8044491 115.178361,12.399186 C114.777712,11.9939228 114.776982,11.3376421 115.178361,10.9321333" id="Fill-77" fill="#E4352F"></path>
                <path d="M109.973623,18.7924947 C110.191229,18.2634421 110.79269,18.0119333 111.317233,18.2312667 C111.84129,18.4501088 112.089809,19.0572667 111.87269,19.5863193 C111.655813,20.1156175 111.054596,20.3673719 110.530296,20.1480386 C110.005753,19.9279684 109.756746,19.321793 109.973623,18.7924947" id="Fill-79" fill="#E4352F"></path>
                <path d="M108.146142,28.0637123 C108.146142,27.4914316 108.6074,27.0269754 109.174296,27.0269754 C109.74168,27.0267298 110.20172,27.4914316 110.20172,28.0646947 C110.20172,28.6372211 109.74168,29.102414 109.174296,29.1016772 C108.607156,29.1006947 108.146142,28.6372211 108.146142,28.0637123" id="Fill-81" fill="#E4352F"></path>
                <path d="M109.974085,37.3358877 C109.756722,36.8065895 110.006458,36.199186 110.530272,35.9808351 C111.055059,35.7612561 111.655789,36.0130105 111.872665,36.5425544 C112.090759,37.0706246 111.841996,37.6780281 111.317452,37.8971158 C110.792665,38.1159579 110.191935,37.8649404 109.974085,37.3358877" id="Fill-83" fill="#E4352F"></path>
                <path d="M115.179067,45.1952912 C114.777688,44.7910105 114.778418,44.1335018 115.179067,43.7292211 C115.580446,43.3229754 116.230588,43.3242035 116.632698,43.7292211 C117.033834,44.133993 117.034564,44.7910105 116.632698,45.1952912 C116.231318,45.6003088 115.580446,45.6005544 115.179067,45.1952912" id="Fill-85" fill="#E4352F"></path>
                <path d="M122.968819,50.4474526 C122.444519,50.2281193 122.195513,49.6209614 122.412389,49.0921544 C122.629509,48.5626105 123.231213,48.3120842 123.755513,48.5311719 C124.279327,48.750014 124.52955,49.3571719 124.3117,49.8857333 C124.094337,50.4152772 123.493606,50.666786 122.968819,50.4474526" id="Fill-87" fill="#E4352F"></path>
                <path d="M132.156998,52.2912281 C131.589615,52.2919649 131.1286,51.8262807 131.129087,51.254 C131.1286,50.6814737 131.589615,50.2177544 132.156998,50.2177544 C132.724138,50.2170175 133.184665,50.6814737 133.184422,51.2542456 C133.184422,51.8267719 132.724868,52.2914737 132.156998,52.2912281" id="Fill-89" fill="#E4352F"></path>
                <path d="M141.34469,50.4467404 C140.82112,50.6668105 140.219172,50.4145649 140.002296,49.8855123 C139.785176,49.3567053 140.034669,48.7500386 140.558726,48.5309509 C141.083026,48.3113719 141.68473,48.5626351 141.901363,49.0921789 C142.118239,49.620986 141.870207,50.2278982 141.34469,50.4467404" id="Fill-91" fill="#E4352F"></path>
                <path d="M149.134442,45.1945789 C148.733793,45.6003333 148.081947,45.5998421 147.681055,45.1948246 C147.279189,44.7895614 147.279675,44.1330351 147.681785,43.7282632 C148.081947,43.323 148.733793,43.323 149.134442,43.7282632 C149.535578,44.1330351 149.536308,44.7895614 149.134442,45.1945789" id="Fill-93" fill="#E4352F"></path>
                <path d="M154.338961,37.3346842 C154.122085,37.8639825 153.519895,38.1147544 152.995838,37.8959123 C152.471538,37.6775614 152.223262,37.0701579 152.439895,36.5411053 C152.656771,36.0113158 153.258961,35.7600526 153.783018,35.9798772 C154.307075,36.1992105 154.557055,36.8058772 154.338961,37.3346842" id="Fill-95" fill="#E4352F"></path>
                <path d="M159.724357,28.0632456 C159.724357,28.5461228 159.337339,28.9366491 158.859286,28.9366491 C158.38099,28.9366491 157.994702,28.5461228 157.994702,28.0632456 C157.994702,27.5808596 158.38099,27.1895965 158.859286,27.1895965 C159.337339,27.1895965 159.724357,27.5808596 159.724357,28.0632456" id="Fill-97" fill="#BE1A8C"></path>
                <path d="M157.625915,17.4178912 C157.808957,17.8629439 157.59914,18.3743123 157.157842,18.559014 C156.7163,18.7432246 156.210012,18.5312596 156.027213,18.086207 C155.844414,17.6406632 156.053014,17.1295404 156.495043,16.9450842 C156.936828,16.7603825 157.443359,16.9721018 157.625915,17.4178912" id="Fill-99" fill="#BE1A8C"></path>
                <path d="M151.649574,8.393 C151.987667,8.73415789 151.987667,9.28703509 151.649574,9.62770175 C151.311724,9.96935088 150.763813,9.96885965 150.426207,9.62745614 C150.088114,9.28703509 150.087383,8.73391228 150.426207,8.39275439 C150.763813,8.05184211 151.311724,8.05184211 151.649574,8.393" id="Fill-101" fill="#BE1A8C"></path>
                <path d="M142.705533,2.36297895 C143.147805,2.54743509 143.357866,3.05831228 143.174824,3.50410175 C142.991051,3.94964561 142.484519,4.16038246 142.043221,3.97592632 C141.60241,3.79220702 141.392105,3.2808386 141.575391,2.83529474 C141.757947,2.38950526 142.264479,2.17876842 142.705533,2.36297895" id="Fill-103" fill="#BE1A8C"></path>
                <g id="Group-107" transform="translate(131.196755, 0.127719)">
                    <mask id="mask-2" fill="white">
                        <use xlink:href="#path-1"></use>
                    </mask>
                    <g id="Clip-106"></g>
                    <path d="M0.959537525,0.117796491 C1.43710345,0.118042105 1.82485193,0.508814035 1.82485193,0.990954386 C1.82485193,1.47383158 1.43710345,1.86386667 0.959537525,1.86386667 C0.481728195,1.86460351 0.0927626775,1.47383158 0.0937363083,0.990954386 C0.0937363083,0.508568421 0.480754564,0.118042105 0.959537525,0.117796491" id="Fill-105" fill="#BE1A8C" mask="url(#mask-2)"></path>
                </g>
                <path d="M121.605834,2.36322456 C122.047862,2.17901404 122.553907,2.39024211 122.736949,2.83504912 C122.919992,3.28182105 122.710418,3.79220702 122.267659,3.97666316 C121.826848,4.16136491 121.320073,3.94989123 121.137517,3.50434737 C120.954718,3.05806667 121.164779,2.5476807 121.605834,2.36322456" id="Fill-108" fill="#BE1A8C"></path>
                <path d="M112.662742,8.39349123 C113.001323,8.05257895 113.548746,8.05233333 113.88611,8.393 C114.224446,8.73514035 114.224203,9.28777193 113.88611,9.6284386 C113.548746,9.96959649 112.999862,9.97008772 112.661769,9.6284386 C112.324162,9.28752632 112.324649,8.73489474 112.662742,8.39349123" id="Fill-110" fill="#BE1A8C"></path>
                <path d="M106.686669,17.4183579 C106.869712,16.9730596 107.375757,16.7610947 107.817542,16.9453053 C108.259083,17.1307439 108.468657,17.6416211 108.285615,18.0869193 C108.103059,18.5322175 107.596527,18.7446737 107.154742,18.5594807 C106.713201,18.3750246 106.504114,17.8641474 106.686669,17.4183579" id="Fill-112" fill="#BE1A8C"></path>
                <path d="M104.587984,28.0637123 C104.588714,27.5810807 104.975732,27.1905544 105.453785,27.1903088 C105.932081,27.1908 106.319099,27.5820632 106.318856,28.0646947 C106.319099,28.5460982 105.931838,28.9380982 105.453298,28.9373614 C104.975732,28.9373614 104.588714,28.5460982 104.587984,28.0637123" id="Fill-114" fill="#BE1A8C"></path>
                <path d="M106.686669,38.7095579 C106.504114,38.2637684 106.713444,37.7531368 107.155229,37.5686807 C107.596771,37.3842246 108.103302,37.5961895 108.285858,38.0412421 C108.468657,38.486786 108.259083,38.9984 107.817542,39.1826105 C107.375757,39.3668211 106.869712,39.1548561 106.686669,38.7095579" id="Fill-116" fill="#BE1A8C"></path>
                <path d="M112.662742,47.7341789 C112.325136,47.3922842 112.325136,46.8403895 112.662742,46.4994772 C113.001566,46.1585649 113.549477,46.1585649 113.88684,46.4994772 C114.224933,46.8396526 114.225663,47.3940035 113.886596,47.7349158 C113.548746,48.0755825 113.001566,48.0753368 112.662742,47.7341789" id="Fill-118" fill="#BE1A8C"></path>
                <path d="M121.606564,53.7642 C121.165509,53.5792526 120.955692,53.0688667 121.137761,52.6230772 C121.32202,52.1775333 121.828065,51.9663053 122.270093,52.1514982 C122.710661,52.3347263 122.921209,52.8470772 122.737436,53.2923754 C122.554637,53.7376737 122.048592,53.9484105 121.606564,53.7642" id="Fill-120" fill="#BE1A8C"></path>
                <g id="Group-124" transform="translate(131.196755, 53.917193)">
                    <mask id="mask-4" fill="white">
                        <use xlink:href="#path-3"></use>
                    </mask>
                    <g id="Clip-123"></g>
                    <path d="M0.959537525,1.9649614 C0.481728195,1.96397895 0.0947099391,1.57345263 0.0942231237,1.09155789 C0.0947099391,0.608926316 0.48221501,0.217908772 0.960267748,0.2184 C1.43783367,0.217663158 1.82655578,0.60917193 1.82606897,1.09155789 C1.82533874,1.57394386 1.43783367,1.96397895 0.959537525,1.9649614" id="Fill-122" fill="#BE1A8C" mask="url(#mask-4)"></path>
                </g>
                <path d="M142.706483,53.7642 C142.264698,53.9484105 141.758653,53.7371825 141.575611,53.2921298 C141.393055,52.8456035 141.603116,52.3347263 142.044657,52.1505158 C142.485712,51.9655684 142.992974,52.1772877 143.175529,52.6230772 C143.358329,53.0688667 143.147538,53.5792526 142.706483,53.7642" id="Fill-125" fill="#BE1A8C"></path>
                <path d="M151.650304,47.7341789 C151.311724,48.0748456 150.76357,48.0748456 150.426207,47.7346702 C150.088114,47.3922842 150.0886,46.8389158 150.42645,46.4987404 C150.76357,46.1578281 151.313185,46.1568456 151.651278,46.4987404 C151.988398,46.8396526 151.987667,47.3922842 151.650304,47.7341789" id="Fill-127" fill="#BE1A8C"></path>
                <path d="M157.626621,38.7088211 C157.442604,39.1538737 156.936803,39.3663298 156.495748,39.1826105 C156.053477,38.9966807 155.844389,38.4855579 156.027919,38.0405053 C156.209988,37.5954526 156.717006,37.3822596 157.157817,37.5676982 C157.600576,37.7528912 157.808933,38.2632772 157.626621,38.7088211" id="Fill-129" fill="#BE1A8C"></path>
                <path d="M149.060057,24.6707018 C149.176406,25.2616491 148.795473,25.8361404 148.210077,25.9542807 C147.623465,26.0714386 147.054377,25.6875439 146.937785,25.0961053 C146.821923,24.5051579 147.201882,23.9304211 147.788008,23.8130175 C148.373647,23.6953684 148.943465,24.0795088 149.060057,24.6707018" id="Fill-131" fill="#F2AC29"></path>
                <path d="M146.486191,18.4017719 C146.818686,18.9028246 146.684568,19.5804737 146.187043,19.9157368 C145.691465,20.2497719 145.019416,20.1154211 144.687408,19.6143684 C144.355886,19.1130702 144.48903,18.4349298 144.985582,18.0999123 C145.482134,17.765386 146.155156,17.9002281 146.486191,18.4017719" id="Fill-133" fill="#F2AC29"></path>
                <path d="M141.731659,13.6036772 C142.227968,13.9382035 142.361598,14.6163439 142.029103,15.1176421 C141.697582,15.6186947 141.02602,15.7532912 140.529469,15.4185193 C140.032917,15.0835018 139.898799,14.4060982 140.230807,13.9043088 C140.562815,13.4037474 141.234377,13.268414 141.731659,13.6036772" id="Fill-135" fill="#F2AC29"></path>
                <path d="M135.518604,11.0067263 C136.104487,11.1243754 136.484933,11.6993579 136.368341,12.2903053 C136.251505,12.8817439 135.682174,13.2651474 135.096779,13.1479895 C134.510897,13.0303404 134.129963,12.4560947 134.246312,11.8641649 C134.362661,11.2734632 134.931992,10.8890772 135.518604,11.0067263" id="Fill-137" fill="#F2AC29"></path>
                <path d="M128.793736,11.0067263 C129.379375,10.8890772 129.948706,11.2737088 130.066028,11.8649018 C130.182377,12.4556035 129.801688,13.0303404 129.216049,13.1479895 C128.62968,13.2658842 128.060105,12.8822351 127.943513,12.2903053 C127.826921,11.6993579 128.207367,11.1246211 128.793736,11.0067263" id="Fill-139" fill="#F2AC29"></path>
                <path d="M122.581144,13.6036772 C123.078183,13.2686596 123.749501,13.4042386 124.081996,13.9052912 C124.412787,14.4063439 124.2794,15.0842386 123.783091,15.4187649 C123.28654,15.7540281 122.615465,15.619186 122.281996,15.1181333 C121.950718,14.6168351 122.084836,13.9389404 122.581144,13.6036772" id="Fill-141" fill="#F2AC29"></path>
                <path d="M117.826369,18.4017719 C118.158134,17.9007193 118.829696,17.766614 119.326734,18.1006491 C119.823286,18.4356667 119.956673,19.113807 119.624909,19.6143684 C119.293144,20.1159123 118.622069,20.2505088 118.124544,19.9164737 C117.628235,19.5814561 117.493874,18.9040526 117.826369,18.4017719" id="Fill-143" fill="#F2AC29"></path>
                <path d="M115.252746,24.6707018 C115.369339,24.08 115.9394,23.6963509 116.525282,23.8137544 C117.110434,23.9311579 117.491611,24.5061404 117.375018,25.0970877 C117.258669,25.6885263 116.688852,26.0719298 116.102483,25.9550175 C115.517087,25.8373684 115.136154,25.2631228 115.252746,24.6707018" id="Fill-145" fill="#F2AC29"></path>
                <path d="M115.252746,31.4565018 C115.136154,30.8653088 115.517574,30.2910632 116.103213,30.1731684 C116.688365,30.0560105 117.258426,30.4399053 117.375018,31.0310982 C117.491854,31.6220456 117.110921,32.1962912 116.525282,32.3144316 C115.9394,32.4320807 115.369826,32.0484316 115.252746,31.4565018" id="Fill-147" fill="#F2AC29"></path>
                <path d="M117.826369,37.7258982 C117.494361,37.2246 117.628966,36.5469509 118.125517,36.2119333 C118.621826,35.8771614 119.293144,36.0115123 119.625882,36.5128105 C119.957404,37.0141088 119.824016,37.6912667 119.327221,38.0272667 C118.830913,38.3622842 118.158864,38.2274421 117.826369,37.7258982" id="Fill-149" fill="#F2AC29"></path>
                <path d="M122.581363,42.523993 C122.085055,42.1892211 121.951911,41.5108351 122.282945,41.0095368 C122.61544,40.5094667 123.287489,40.3738877 123.78331,40.7089053 C124.280105,41.0434316 124.413493,41.7208351 124.082702,42.2228702 C123.750694,42.7239228 123.078888,42.8585193 122.581363,42.523993" id="Fill-151" fill="#F2AC29"></path>
                <path d="M128.79398,45.1206982 C128.208584,45.0028035 127.828625,44.4278211 127.94473,43.8363825 C128.060836,43.2459263 128.631383,42.8615404 129.216779,42.9796807 C129.802661,43.0963474 130.183108,43.6710842 130.066759,44.2627684 C129.950653,44.8539614 129.380349,45.2383474 128.79398,45.1206982" id="Fill-153" fill="#F2AC29"></path>
                <path d="M135.518604,45.1206982 C134.933209,45.2383474 134.363878,44.8534702 134.247043,44.2627684 C134.130694,43.6723123 134.511383,43.0963474 135.097753,42.9791895 C135.682418,42.8615404 136.252235,43.2451895 136.370045,43.8363825 C136.48615,44.4278211 136.105217,45.0028035 135.518604,45.1206982" id="Fill-155" fill="#F2AC29"></path>
                <path d="M141.732389,42.523993 C141.235108,42.8582737 140.563302,42.7234316 140.230807,42.2221333 C139.900016,41.7208351 140.033647,41.0422035 140.529955,40.7086596 C141.026264,40.3736421 141.697582,40.507993 142.03032,41.0088 C142.362815,41.509607 142.229185,42.1882386 141.732389,42.523993" id="Fill-157" fill="#F2AC29"></path>
                <path d="M146.486921,37.7258982 C146.155886,38.226214 145.482864,38.3610561 144.985582,38.0260386 C144.490247,37.6912667 144.356617,37.0133719 144.687895,36.5125649 C145.019416,36.0115123 145.690734,35.8764246 146.18826,36.2109509 C146.685055,36.5452316 146.819172,37.2238632 146.486921,37.7258982" id="Fill-159" fill="#F2AC29"></path>
                <path d="M149.060763,31.4565018 C148.94417,32.0472035 148.374353,32.4313439 147.787984,32.3132035 C147.202588,32.1962912 146.821899,31.6203263 146.938491,31.0303614 C147.054353,30.4389228 147.62344,30.0560105 148.210783,30.172186 C148.795448,30.2893439 149.176381,30.8645719 149.060763,31.4565018" id="Fill-161" fill="#F2AC29"></path>
                <path d="M152.522191,23.9758351 C152.622961,24.4859754 152.294361,24.982607 151.78783,25.0840456 C151.282028,25.1859754 150.790101,24.8536596 150.689574,24.3435193 C150.58929,23.8326421 150.918134,23.3362561 151.422961,23.2343263 C151.929006,23.1326421 152.42142,23.4649579 152.522191,23.9758351" id="Fill-163" fill="#E9592D"></path>
                <path d="M149.421128,16.4224667 C149.707862,16.8554842 149.592974,17.4407825 149.163846,17.7301158 C148.735448,18.0189579 148.154921,17.9025368 147.868917,17.4702561 C147.581209,17.0367474 147.697071,16.4512035 148.125225,16.1621158 C148.553866,15.8732737 149.134637,15.9896947 149.421128,16.4224667" id="Fill-165" fill="#E9592D"></path>
                <path d="M143.692479,10.6416702 C144.121363,10.9307579 144.237225,11.5165474 143.950247,11.9490737 C143.663757,12.3818456 143.083229,12.4985123 142.655075,12.2091789 C142.226191,11.9196 142.110085,11.3338105 142.396576,10.9015298 C142.68331,10.4690035 143.263594,10.3528281 143.692479,10.6416702" id="Fill-167" fill="#E9592D"></path>
                <path d="M136.207229,7.51321053 C136.713517,7.61489474 137.042118,8.11103509 136.94159,8.62191228 C136.841063,9.13229825 136.348162,9.46363158 135.842848,9.36194737 C135.336803,9.26001754 135.007473,8.76412281 135.108243,8.25398246 C135.208284,7.74335088 135.701671,7.41177193 136.207229,7.51321053" id="Fill-169" fill="#E9592D"></path>
                <path d="M128.104868,7.51367719 C128.610669,7.41174737 129.103327,7.74357193 129.203611,8.25395789 C129.304381,8.76409825 128.975051,9.26072982 128.469736,9.36192281 C127.963692,9.4633614 127.471034,9.13227368 127.370994,8.62213333 C127.269736,8.11150175 127.599554,7.61560702 128.104868,7.51367719" id="Fill-171" fill="#E9592D"></path>
                <path d="M120.619619,10.6426281 C121.04899,10.3532947 121.628787,10.4692246 121.916008,10.9019965 C122.202742,11.3345228 122.086394,11.9205579 121.658483,12.2096456 C121.228625,12.4984877 120.648097,12.3825579 120.36112,11.9500316 C120.075846,11.5172596 120.190978,10.9314702 120.619619,10.6426281" id="Fill-173" fill="#E9592D"></path>
                <path d="M114.891456,16.4234246 C115.178191,15.9901614 115.758718,15.8737404 116.186629,16.1625825 C116.61527,16.4516702 116.731132,17.0379509 116.444884,17.4704772 C116.157907,17.9027579 115.576406,18.020407 115.148738,17.7310737 C114.719367,17.441986 114.604722,16.8564421 114.891456,16.4234246" id="Fill-175" fill="#E9592D"></path>
                <path d="M111.790856,23.9765474 C111.891383,23.4659158 112.383554,23.1336 112.888868,23.2350386 C113.394913,23.3369684 113.723757,23.8338456 113.622986,24.3437404 C113.522215,24.8543719 113.030288,25.1871789 112.525217,25.0854947 C112.018929,24.9838105 111.690085,24.4866877 111.790856,23.9765474" id="Fill-177" fill="#E9592D"></path>
                <path d="M111.790856,32.1518351 C111.690085,31.6416947 112.018929,31.1440807 112.525217,31.0431333 C113.030531,30.9414491 113.522702,31.2730281 113.622986,31.7836596 C113.723757,32.2945368 113.3954,32.791414 112.889598,32.8933439 C112.383797,32.9942912 111.89187,32.6622211 111.790856,32.1518351" id="Fill-179" fill="#E9592D"></path>
                <path d="M114.891919,39.7049579 C114.604698,39.2724316 114.719343,38.6863965 115.148957,38.3975544 C115.577598,38.1077298 116.158126,38.2248877 116.44486,38.6571684 C116.731594,39.090186 116.616462,39.6767123 116.187335,39.9655544 C115.759181,40.2541509 115.17841,40.1374842 114.891919,39.7049579" id="Fill-181" fill="#E9592D"></path>
                <path d="M120.62103,45.486 C120.191659,45.1959298 120.075797,44.6108772 120.362288,44.1785965 C120.648535,43.7453333 121.229793,43.6284211 121.658434,43.918 C122.087075,44.2073333 122.203424,44.7931228 121.917176,45.2258947 C121.630199,45.6589123 121.050158,45.7743509 120.62103,45.486" id="Fill-183" fill="#E9592D"></path>
                <path d="M128.106548,48.6144596 C127.600503,48.5125298 127.270442,48.0161439 127.371213,47.5057579 C127.472471,46.9951263 127.964398,46.6633018 128.470199,46.7652316 C128.976243,46.8664246 129.306548,47.3628105 129.20529,47.8731965 C129.104519,48.3835825 128.611862,48.7151614 128.106548,48.6144596" id="Fill-185" fill="#E9592D"></path>
                <path d="M136.208398,48.6137474 C135.701866,48.715186 135.209452,48.383607 135.109412,47.8737123 C135.008641,47.3628351 135.337728,46.8664491 135.843286,46.7652561 C136.349331,46.6633263 136.842231,46.994414 136.942759,47.5043088 C137.042799,48.0154316 136.713712,48.5120632 136.208398,48.6137474" id="Fill-187" fill="#E9592D"></path>
                <path d="M143.693671,45.4847965 C143.264544,45.7738842 142.683529,45.6579544 142.397039,45.2249368 C142.110304,44.7931474 142.22641,44.2068667 142.655051,43.9180246 C143.083935,43.6284456 143.664462,43.7441298 143.95071,44.1771474 C144.237444,44.6096737 144.122069,45.1952175 143.693671,45.4847965" id="Fill-189" fill="#E9592D"></path>
                <path d="M149.422077,39.7042456 C149.135343,40.1362807 148.554815,40.2541754 148.126418,39.9643509 C147.698264,39.676 147.581671,39.0894737 147.868892,38.657193 C148.156114,38.2244211 148.735667,38.1067719 149.164552,38.3961053 C149.592949,38.6859298 149.707838,39.2707368 149.422077,39.7042456" id="Fill-191" fill="#E9592D"></path>
                <path d="M152.522897,32.1504105 C152.421396,32.6610421 151.929225,32.9938491 151.424154,32.8916737 C150.91811,32.7899895 150.589266,32.2936035 150.68955,31.7837088 C150.790807,31.2728316 151.282734,30.9397789 151.788535,31.0419544 C152.29458,31.143393 152.622937,31.6405158 152.522897,32.1504105" id="Fill-193" fill="#E9592D"></path>
                <path d="M155.694085,23.3387614 C155.779278,23.7688316 155.502523,24.1861298 155.076073,24.2720947 C154.65084,24.357814 154.23583,24.0787965 154.151367,23.6484807 C154.066661,23.2189018 154.342929,22.8006211 154.768649,22.7149018 C155.195343,22.6291825 155.61011,22.9086912 155.694085,23.3387614" id="Fill-195" fill="#DE1C50"></path>
                <path d="M152.110247,14.6091474 C152.351951,14.9738842 152.255075,15.4663404 151.893128,15.7102351 C151.532884,15.9538842 151.044122,15.8556386 150.802905,15.4909018 C150.561931,15.1269018 150.658077,14.6337088 151.019538,14.389814 C151.380755,14.1464105 151.869761,14.2451474 152.110247,14.6091474" id="Fill-197" fill="#DE1C50"></path>
                <path d="M145.489266,7.92792982 C145.850483,8.17182456 145.947846,8.66403509 145.706629,9.02950877 C145.465412,9.39350877 144.976649,9.49175439 144.615189,9.24785965 C144.254702,9.00445614 144.156852,8.51126316 144.397582,8.14726316 C144.639773,7.78203509 145.128049,7.68452632 145.489266,7.92792982" id="Fill-199" fill="#DE1C50"></path>
                <path d="M136.838093,4.31254035 C137.264544,4.39825965 137.540325,4.81506667 137.456105,5.24587368 C137.371643,5.67569825 136.95712,5.9549614 136.530669,5.86899649 C136.105193,5.78327719 135.828925,5.36597895 135.91217,4.93615439 C135.99785,4.50559298 136.41213,4.22632982 136.838093,4.31254035" id="Fill-201" fill="#DE1C50"></path>
                <path d="M127.474004,4.31254035 C127.900454,4.22682105 128.314004,4.5058386 128.399197,4.93615439 C128.483659,5.36597895 128.206661,5.78425965 127.780698,5.86948772 C127.354734,5.95447018 126.940698,5.67618947 126.855262,5.24685614 C126.771043,4.81555789 127.047554,4.39801404 127.474004,4.31254035" id="Fill-203" fill="#DE1C50"></path>
                <path d="M118.822588,7.92839649 C119.184779,7.68499298 119.672568,7.78299298 119.914272,8.14772982 C120.155489,8.51197544 120.058369,9.00492281 119.696665,9.24857193 C119.335692,9.49197544 118.847659,9.39422105 118.605225,9.02997544 C118.364008,8.66499298 118.462101,8.17229123 118.822588,7.92839649" id="Fill-205" fill="#DE1C50"></path>
                <path d="M112.201606,14.6101053 C112.443797,14.2458596 112.930856,14.1473684 113.29329,14.3910175 C113.654264,14.6346667 113.751383,15.1273684 113.50968,15.4918596 C113.267976,15.8561053 112.780187,15.9548421 112.419213,15.7116842 C112.056779,15.4670526 111.960633,14.9743509 112.201606,14.6101053" id="Fill-207" fill="#DE1C50"></path>
                <path d="M108.618475,23.3397193 C108.704154,22.9096491 109.117217,22.6301404 109.543911,22.7158596 C109.969387,22.8018246 110.246385,23.2193684 110.161193,23.6494386 C110.076487,24.0795088 109.66245,24.3585263 109.236243,24.2735439 C108.80955,24.1873333 108.533525,23.7692982 108.618475,23.3397193" id="Fill-209" fill="#DE1C50"></path>
                <path d="M108.618475,32.7886632 C108.534256,32.3581018 108.810037,31.9405579 109.236243,31.8553298 C109.663424,31.7701018 110.07673,32.0483825 110.16168,32.4789439 C110.246385,32.9087684 109.970118,33.3268035 109.544154,33.4125228 C109.11673,33.4982421 108.703667,33.2184877 108.618475,32.7886632" id="Fill-211" fill="#DE1C50"></path>
                <path d="M112.202069,41.5182772 C111.961095,41.1535404 112.057485,40.6608386 112.419189,40.4169439 C112.780649,40.1730491 113.268925,40.2715404 113.510142,40.6362772 C113.751359,41.0007684 113.654239,41.4934702 113.293996,41.7371193 C112.931318,41.981014 112.443773,41.8822772 112.202069,41.5182772" id="Fill-213" fill="#DE1C50"></path>
                <path d="M118.823538,48.1992737 C118.462564,47.9561158 118.364714,47.4631684 118.606661,47.0986772 C118.848609,46.7336947 119.336398,46.6354491 119.697858,46.8798351 C120.058588,47.122993 120.155951,47.6154491 119.915465,47.9799404 C119.673274,48.345414 119.184755,48.4429228 118.823538,48.1992737" id="Fill-215" fill="#DE1C50"></path>
                <path d="M127.474734,51.8151298 C127.049258,51.7291649 126.77226,51.3118667 126.856966,50.8820421 C126.942158,50.4514807 127.355951,50.1722175 127.782402,50.2576912 C128.207391,50.3439018 128.483903,50.7609544 128.40017,51.1912702 C128.314734,51.6220772 127.900454,51.9008491 127.474734,51.8151298" id="Fill-217" fill="#DE1C50"></path>
                <path d="M136.839505,51.8146386 C136.412811,51.8998667 135.998531,51.6213404 135.913826,51.1915158 C135.82985,50.7609544 136.105874,50.3431649 136.531838,50.2576912 C136.957801,50.1724632 137.372081,50.4522175 137.45703,50.880814 C137.541493,51.3118667 137.264982,51.7291649 136.839505,51.8146386" id="Fill-219" fill="#DE1C50"></path>
                <path d="M145.489996,48.1985368 C145.129266,48.4416947 144.640503,48.3451684 144.398799,47.9799404 C144.157339,47.6152035 144.254702,47.1225018 144.615919,46.8781158 C144.977379,46.6359404 145.465168,46.7336947 145.708089,47.0967123 C145.949063,47.4631684 145.851213,47.9553789 145.489996,48.1985368" id="Fill-221" fill="#DE1C50"></path>
                <path d="M152.11144,41.5170737 C151.869736,41.8815649 151.382191,41.9803018 151.020487,41.7368982 C150.658783,41.4922667 150.561907,40.9998105 150.804097,40.6350737 C151.044097,40.2715649 151.53286,40.1730737 151.893347,40.4152491 C152.256511,40.6603719 152.352657,41.1535649 152.11144,41.5170737" id="Fill-223" fill="#DE1C50"></path>
                <path d="M155.694085,32.7879509 C155.61011,33.2172842 155.19583,33.4965474 154.769379,33.4118105 C154.342929,33.3253544 154.066661,32.9080561 154.151367,32.4774947 C154.23656,32.0476702 154.65084,31.7696351 155.076073,31.8536351 C155.50301,31.9400912 155.779521,32.3581263 155.694085,32.7879509" id="Fill-225" fill="#DE1C50"></path>
                <g id="Group-229" transform="translate(0.000000, 22.724211)">
                    <mask id="mask-6" fill="white">
                        <use xlink:href="#path-5"></use>
                    </mask>
                    <g id="Clip-228"></g>
                    <path d="M9.88597972,1.19692632 L8.65677079,3.64250526 L8.44573631,3.5206807 C8.45060446,3.47008421 8.45328195,3.42931228 8.45328195,3.39885614 C8.45328195,3.2266807 8.30748073,3.04124211 8.0158783,2.84352281 C7.12111156,2.21450526 6.07032049,1.89987368 4.86374848,1.89987368 C4.33092901,1.89987368 3.86090872,1.96569825 3.45368763,2.09759298 C3.15697363,2.19878596 2.91697363,2.35082105 2.73344422,2.55345263 C2.54991481,2.75632982 2.4581501,2.97664561 2.4581501,3.21489123 C2.4581501,3.60517193 2.69206491,3.87117193 3.15965112,4.01313684 C3.40062475,4.08387368 3.91859635,4.15976842 4.71307911,4.24106667 L5.89677079,4.36264561 C6.60070588,4.43878596 7.17003651,4.5426807 7.60476268,4.67432982 C8.03973225,4.80622456 8.42553347,4.99117193 8.76240974,5.22941754 C9.10415416,5.47797895 9.37433671,5.80489123 9.5729574,6.21015439 C9.77157809,6.61566316 9.87088844,7.04917193 9.87088844,7.51043509 C9.87088844,8.2404 9.63721704,8.88906667 9.16963083,9.45692632 C8.74731846,9.97394386 8.09109128,10.3566105 7.20143611,10.6051719 C6.53790669,10.7923298 5.82642596,10.8861544 5.06748073,10.8861544 C3.70488438,10.8861544 2.3603002,10.5565404 1.03299797,9.89706667 C0.751618661,9.76541754 0.583180527,9.69910175 0.527926978,9.69910175 C0.462450304,9.69910175 0.359245436,9.75510175 0.218799189,9.86661053 L-2.43407708e-05,9.75264561 L1.116,7.20341754 L1.33482353,7.31001404 L1.33482353,7.40899649 C1.33482353,7.63717193 1.44265314,7.84766316 1.6590426,8.04047018 C1.98569574,8.3349614 2.49101014,8.58843509 3.17474239,8.80138246 C3.85823124,9.01432982 4.50666937,9.12117193 5.1200568,9.12117193 C5.78869777,9.12117193 6.35924544,9.00720702 6.8319432,8.77927719 C7.09336308,8.65278596 7.30196349,8.48454035 7.45774442,8.27404912 C7.61352535,8.06404912 7.69165923,7.8449614 7.69165923,7.61727719 C7.69165923,7.27292632 7.50788641,7.02755789 7.14107099,6.8806807 C6.88476268,6.77948772 6.36679108,6.68566316 5.587643,6.59969825 L4.42634483,6.4781193 C3.64719675,6.39682105 3.09636511,6.31945263 2.77506694,6.24601404 C2.45328195,6.17232982 2.13149696,6.05418947 1.80971197,5.89159298 C1.35234888,5.66341754 0.9928357,5.32078596 0.731415822,4.86369825 C0.495066937,4.45254035 0.377014199,3.98022456 0.377014199,3.44724211 C0.377014199,2.56917193 0.676162272,1.84313684 1.27445842,1.26938246 C2.05871805,0.512891228 3.2348641,0.134645614 4.80338337,0.134645614 C5.46204462,0.134645614 6.07518864,0.202435088 6.64354564,0.337277193 C7.21141582,0.472364912 7.92021907,0.720680702 8.76995538,1.08222456 C9.0613144,1.19938246 9.23997566,1.25808421 9.30520892,1.25808421 C9.41084787,1.25808421 9.53401217,1.19938246 9.67445842,1.08222456 L9.88597972,1.19692632 Z" id="Fill-227" fill="#034162" mask="url(#mask-6)"></path>
                </g>
                <path d="M25.9212901,23.8403053 L25.9212901,29.6613579 C25.9212901,30.7622 25.7202353,31.5864807 25.3178824,32.1344456 C24.5939878,33.1183754 23.0984909,33.6103404 20.8311481,33.6103404 C19.192284,33.6103404 17.9380041,33.3440947 17.0683083,32.8113579 C16.5605598,32.5023754 16.2088357,32.0811474 16.0126491,31.5484105 C15.821574,31.0208316 15.7261582,30.391814 15.7261582,29.6613579 L15.7261582,23.8403053 C15.7261582,23.6831123 15.6908641,23.5639895 15.6205193,23.4826912 C15.5501744,23.4016386 15.4245761,23.3355684 15.2434807,23.2849719 L15.2434807,23.0415684 L18.4559757,23.0415684 L18.4559757,23.2849719 C18.2775578,23.3306561 18.1526897,23.395007 18.0808844,23.4787614 C18.0090791,23.5625158 17.9732982,23.6831123 17.9732982,23.8403053 L17.9732982,29.0222702 C17.9732982,29.6208316 18.0059148,30.0634281 18.0713915,30.3500596 C18.1366247,30.6366912 18.259789,30.8761649 18.4408844,31.0692175 C18.9233185,31.5864807 19.7479838,31.8453579 20.9141501,31.8453579 C22.085428,31.8453579 22.9125274,31.5864807 23.3952049,31.0692175 C23.5709452,30.8761649 23.6916755,30.6366912 23.7571521,30.3500596 C23.8223854,30.0634281 23.8552454,29.6208316 23.8552454,29.0222702 L23.8552454,23.8403053 C23.8552454,23.6831123 23.8199513,23.5639895 23.7496065,23.4826912 C23.6790183,23.4016386 23.5534199,23.3355684 23.372568,23.2849719 L23.372568,23.0415684 L26.4039675,23.0415684 L26.4039675,23.2849719 C26.2228722,23.3355684 26.0972738,23.4016386 26.026929,23.4826912 C25.9563408,23.5639895 25.9212901,23.6831123 25.9212901,23.8403053" id="Fill-230" fill="#034162"></path>
                <path d="M34.2954402,26.3132456 L34.2954402,32.6289649 C34.2954402,32.7861579 34.3304909,32.9055263 34.4010791,32.9865789 C34.4714239,33.0678772 34.5970223,33.134193 34.7778742,33.1845439 L34.7778742,33.4279474 L31.7542637,33.4279474 L31.7542637,33.1845439 C31.9351156,33.134193 32.060714,33.0678772 32.1310588,32.9865789 C32.2014037,32.9055263 32.2366978,32.7861579 32.2366978,32.6289649 L32.2366978,23.8327895 C32.2366978,23.6805088 32.2014037,23.5640877 32.1310588,23.4827895 C32.060714,23.4017368 31.9351156,23.3356667 31.7542637,23.2848246 L31.7542637,23.0414211 L35.2530061,23.0414211 L35.2530061,23.2848246 C35.03686,23.3405789 34.928787,23.4574912 34.928787,23.6350702 C34.928787,23.7566491 34.9991318,23.8912456 35.1400649,24.0381228 L40.8180365,29.9962281 L40.8180365,23.8327895 C40.8180365,23.6805088 40.7829858,23.5640877 40.712641,23.4827895 C40.6420527,23.4017368 40.5166978,23.3356667 40.3356024,23.2848246 L40.3356024,23.0414211 L43.3594564,23.0414211 L43.3594564,23.2848246 C43.1783611,23.3356667 43.0527627,23.4017368 42.9824178,23.4827895 C42.9118296,23.5640877 42.8767789,23.6805088 42.8767789,23.8327895 L42.8767789,32.6289649 C42.8767789,32.7861579 42.9118296,32.9055263 42.9824178,32.9865789 C43.0527627,33.0678772 43.1783611,33.134193 43.3594564,33.1845439 L43.3594564,33.4279474 L40.1170223,33.4279474 L40.1170223,33.1845439 C40.3280568,33.1388596 40.4336957,33.029807 40.4336957,32.8576316 C40.4336957,32.7557018 40.310288,32.5783684 40.0639594,32.3246491 L34.2954402,26.3132456 Z" id="Fill-232" fill="#034162"></path>
                <path d="M51.6507262,27.4775053 L55.1195294,27.4775053 C55.6319026,27.4775053 55.9940933,27.4622772 56.2053712,27.4318211 C56.4164057,27.4013649 56.6099148,27.3382421 56.7858986,27.2417158 C57.1680487,27.0336807 57.3591237,26.6583825 57.3591237,26.1155754 C57.3591237,25.5727684 57.1680487,25.1974702 56.7858986,24.9894351 C56.6050467,24.8879965 56.4127546,24.8231544 56.2092657,24.7954 C56.0055335,24.7676456 55.6421258,24.7534 55.1195294,24.7534 L51.6507262,24.7534 L51.6507262,27.4775053 Z M51.6507262,29.1896807 L51.6507262,32.6366281 C51.6507262,32.7886632 51.6869939,32.9065579 51.7600162,32.9903123 C51.8327951,33.0740667 51.9571765,33.1389088 52.1329168,33.1843474 L52.1329168,33.4279965 L48.9209087,33.4279965 L48.9209087,33.1843474 C49.1020041,33.1337509 49.2276024,33.0679263 49.2979473,32.9866281 C49.3682921,32.9055754 49.4035862,32.7886632 49.4035862,32.6366281 L49.4035862,23.840207 C49.4035862,23.6832596 49.3682921,23.5638912 49.2979473,23.482593 C49.2276024,23.4015404 49.1020041,23.3357158 48.9209087,23.2848737 L48.9209087,23.0412246 L55.3607465,23.0412246 C56.1450061,23.0412246 56.7671562,23.0871544 57.2271968,23.1785228 C57.6869939,23.2698912 58.0878864,23.4295404 58.4298742,23.6577158 C58.8266288,23.9215053 59.1235862,24.2793649 59.3195294,24.7305579 C59.5057363,25.167014 59.5984746,25.6336807 59.5984746,26.1308035 C59.5984746,27.8250491 58.6659797,28.8168386 56.8009899,29.1059263 L58.7993671,31.9746982 C59.1510913,32.4767333 59.40886,32.800207 59.5721866,32.9448737 C59.7355132,33.0892947 59.9353509,33.1691193 60.1714564,33.1843474 L60.1714564,33.4279965 L56.4529168,33.4279965 L56.4529168,33.1843474 C56.7087383,33.1438211 56.8370142,33.0524526 56.8370142,32.9104877 C56.8370142,32.8191193 56.7189615,32.5985579 56.4830994,32.2485579 L54.3983124,29.1896807 L51.6507262,29.1896807 Z" id="Fill-234" fill="#034162"></path>
                <path d="M65.5974523,32.6289158 L65.5974523,23.8327404 C65.5974523,23.6804596 65.5621582,23.5640386 65.4918134,23.4827404 C65.4214686,23.4016877 65.2958702,23.3356175 65.1150183,23.2850211 L65.1150183,23.0413719 L68.3270264,23.0413719 L68.3270264,23.2850211 C68.1461744,23.3307053 68.0208195,23.3950561 67.9504746,23.4788105 C67.879643,23.5625649 67.8445923,23.6804596 67.8445923,23.8327404 L67.8445923,32.6289158 C67.8445923,32.7863544 67.88086,32.9067053 67.9541258,32.9904596 C68.0266613,33.0739684 68.1510426,33.1388105 68.3270264,33.1844947 L68.3270264,33.4278982 L65.1150183,33.4278982 L65.1150183,33.1844947 C65.2958702,33.1338982 65.4214686,33.0678281 65.4918134,32.9865298 C65.5621582,32.9054772 65.5974523,32.7863544 65.5974523,32.6289158" id="Fill-236" fill="#034162"></path>
                <path d="M83.7668641,23.9211368 L82.5374118,26.3667158 L82.3266207,26.2448912 C82.3314888,26.1942947 82.3339229,26.1535228 82.3339229,26.1230667 C82.3339229,25.9508912 82.1883651,25.7654526 81.8965193,25.5677333 C81.0019959,24.9387158 79.9509615,24.6240842 78.7446329,24.6240842 C78.2118134,24.6240842 77.7417931,24.6899088 77.334572,24.8218035 C77.037858,24.9229965 76.797858,25.0750316 76.6143286,25.2776632 C76.4307992,25.4805404 76.3387911,25.7008561 76.3387911,25.9391018 C76.3387911,26.3293825 76.5729493,26.5953825 77.0405355,26.7373474 C77.2817525,26.8080842 77.7992373,26.8839789 78.5939635,26.9652772 L79.7776552,27.0868561 C80.4815903,27.1629965 81.0509209,27.2668912 81.4856471,27.3985404 C81.9206166,27.5304351 82.3064178,27.7153825 82.6432941,27.9536281 C82.9850385,28.2021895 83.2549777,28.5291018 83.4538418,28.9343649 C83.6522191,29.3398737 83.7517728,29.7733825 83.7517728,30.2346456 C83.7517728,30.9646105 83.5181014,31.6132772 83.0505152,32.1811368 C82.6279594,32.6981544 81.9719757,33.0808211 81.0823205,33.3293825 C80.4187911,33.5165404 79.7073103,33.6103649 78.9483651,33.6103649 C77.5857688,33.6103649 76.2411846,33.2807509 74.9138824,32.6212772 C74.632503,32.4896281 74.4640649,32.4233123 74.4088114,32.4233123 C74.3433347,32.4233123 74.2401298,32.4793123 74.0994402,32.5908211 L73.88086,32.4768561 L74.9968844,29.9276281 L75.2157079,30.0342246 L75.2157079,30.133207 C75.2157079,30.3613825 75.3235375,30.5718737 75.5396836,30.7646807 C75.8665801,31.0591719 76.3718945,31.3126456 77.0556268,31.525593 C77.7391156,31.7385404 78.3875538,31.8453825 79.0009412,31.8453825 C79.6695822,31.8453825 80.2401298,31.7314175 80.7128276,31.5034877 C80.9740041,31.3769965 81.1828479,31.2087509 81.3383854,30.9982596 C81.4944097,30.7882596 81.5723002,30.5691719 81.5723002,30.3414877 C81.5723002,29.9971368 81.3885274,29.7517684 81.0219554,29.6048912 C80.7656471,29.5036982 80.2476755,29.4098737 79.4685274,29.3239088 L78.3072292,29.2023298 C77.5280811,29.1210316 76.9774929,29.0436632 76.6559513,28.9702246 C76.3341663,28.8965404 76.0123813,28.7784 75.6905963,28.6158035 C75.2332333,28.3876281 74.8737201,28.0449965 74.6123002,27.5879088 C74.3759513,27.1767509 74.2578986,26.7044351 74.2578986,26.1714526 C74.2578986,25.2933825 74.5570467,24.5673474 75.1553428,23.993593 C75.9396024,23.2371018 77.1157485,22.8588561 78.6842677,22.8588561 C79.342929,22.8588561 79.956073,22.9266456 80.52443,23.0614877 C81.0923002,23.1965754 81.8011034,23.4448912 82.6508398,23.8064351 C82.9419554,23.923593 83.12086,23.9822947 83.1858499,23.9822947 C83.2917323,23.9822947 83.4148966,23.923593 83.5555862,23.8064351 L83.7668641,23.9211368 Z" id="Fill-238" fill="#034162"></path>
                <path d="M91.7489331,28.8701123 L91.7489331,31.7157965 L98.3696227,31.7157965 C98.5202921,31.7157965 98.6361542,31.6801825 98.7164787,31.6092 C98.7970467,31.5382175 98.8625233,31.4114807 98.9126653,31.2289895 L99.1538824,31.2289895 L99.1538824,33.9147789 L98.9126653,33.9147789 C98.8625233,33.7322877 98.7970467,33.6053053 98.7164787,33.5343228 C98.6361542,33.4633404 98.5202921,33.4279719 98.3696227,33.4279719 L89.0191156,33.4279719 L89.0191156,33.1843228 C89.1997241,33.1337263 89.3258093,33.0679018 89.3961542,32.9866035 C89.466499,32.9055509 89.5017931,32.7861825 89.5017931,32.6289895 L89.5017931,23.8401825 C89.5017931,23.6832351 89.466499,23.5638667 89.3961542,23.4825684 C89.3258093,23.4015158 89.1997241,23.3356912 89.0191156,23.2848491 L89.0191156,23.0414456 L98.1887708,23.0414456 C98.3394402,23.0414456 98.4553022,23.005586 98.5356268,22.9331298 C98.6159513,22.8606737 98.6809412,22.7344281 98.73157,22.5546386 L98.9730304,22.5546386 L98.9730304,25.2404281 L98.73157,25.2404281 C98.6809412,25.0601474 98.6159513,24.9339018 98.5356268,24.8616912 C98.4553022,24.7897263 98.3394402,24.7533754 98.1887708,24.7533754 L91.7489331,24.7533754 L91.7489331,27.2188491 L95.9265396,27.2188491 C96.0769655,27.2188491 96.193071,27.1834807 96.2733955,27.1122526 C96.3537201,27.0415158 96.4191968,26.9145333 96.4695822,26.7317965 L96.7107992,26.7317965 L96.7107992,29.3569193 L96.4695822,29.3569193 C96.4191968,29.179586 96.3537201,29.0538316 96.2733955,28.980393 C96.193071,28.9067088 96.0769655,28.8701123 95.9265396,28.8701123 L91.7489331,28.8701123 Z" id="Fill-240" fill="#034162"></path>
                <path d="M168.036341,31.7157965 L171.852,31.7157965 C172.560803,31.7157965 173.070986,31.6170596 173.382791,31.4190947 C173.739627,31.1906737 173.918045,30.8180772 173.918045,30.3005684 C173.918045,29.7882175 173.739627,29.4153754 173.382791,29.1820421 C173.076097,28.9840772 172.565671,28.8853404 171.852,28.8853404 L168.036341,28.8853404 L168.036341,31.7157965 Z M168.036341,27.1731649 L171.980032,27.1731649 C172.578329,27.1731649 172.995529,27.0844982 173.231878,26.9069193 C173.497923,26.7040421 173.631554,26.3891649 173.631554,25.9632702 C173.631554,25.5273053 173.505955,25.2163579 173.254515,25.0311649 C173.003075,24.8459719 172.578329,24.7533754 171.980032,24.7533754 L168.036341,24.7533754 L168.036341,27.1731649 Z M174.476178,27.9873754 C175.632365,28.4287439 176.210458,29.2454105 176.210458,30.4376211 C176.210458,31.3861825 175.873582,32.1294105 175.200073,32.6670596 C174.858085,32.936007 174.462061,33.1300421 174.012487,33.2489193 C173.562426,33.3685333 173.005753,33.4279719 172.341736,33.4279719 L165.306523,33.4279719 L165.306523,33.1843228 C165.487375,33.1334807 165.613217,33.0679018 165.683562,32.9866035 C165.753907,32.9055509 165.789201,32.7861825 165.789201,32.6289895 L165.789201,23.8404281 C165.789201,23.6832351 165.753907,23.5641123 165.683562,23.4825684 C165.613217,23.4015158 165.487375,23.3356912 165.306523,23.2848491 L165.306523,23.0414456 L172.274312,23.0414456 C172.94271,23.0414456 173.480641,23.0922877 173.887862,23.1937263 C174.295083,23.2951649 174.652162,23.467586 174.958369,23.7109895 C175.566888,24.1931298 175.871148,24.8879719 175.871148,25.7955158 C175.871148,26.810393 175.405996,27.5410947 174.476178,27.9873754 L174.476178,27.9873754 Z" id="Fill-242" fill="#034162"></path>
                <path d="M188.032138,29.3570175 L186.362848,25.6573333 L184.666783,29.3570175 L188.032138,29.3570175 Z M188.678629,30.7798596 L184.000819,30.7798596 L183.307594,32.2407719 C183.211935,32.4436491 183.164227,32.6035439 183.164227,32.7202105 C183.164227,32.9437193 183.332178,33.0977193 183.668325,33.1844211 L183.668325,33.4278246 L180.263781,33.4278246 L180.263781,33.1844211 C180.464836,33.1438947 180.618183,33.0729123 180.723822,32.9714737 C180.829217,32.8700351 180.949947,32.6720702 181.085769,32.3778246 L184.871245,24.3958596 C184.991976,24.142386 185.052341,23.9392632 185.052341,23.7869825 C185.052341,23.5538947 184.906296,23.3861404 184.614937,23.2847018 L184.614937,23.0415439 L188.264592,23.0415439 L188.264592,23.2847018 C187.967878,23.3711579 187.819643,23.5207368 187.819643,23.7334386 C187.819643,23.8810526 187.867351,24.0485614 187.96301,24.2359649 L191.884065,32.2407719 C192.050069,32.5807018 192.195627,32.812807 192.321469,32.9370877 C192.447067,33.0613684 192.615505,33.1438947 192.826783,33.1844211 L192.826783,33.4278246 L189.037412,33.4278246 L189.037412,33.1844211 C189.37015,33.1281754 189.536884,32.9714737 189.536884,32.7125965 C189.536884,32.6062456 189.486499,32.4490526 189.385972,32.2407719 L188.678629,30.7798596 Z" id="Fill-244" fill="#034162"></path>
                <path d="M199.949136,26.3132456 L199.949136,32.6289649 C199.949136,32.7861579 199.98443,32.9055263 200.054775,32.9865789 C200.12512,33.0678772 200.250718,33.134193 200.43157,33.1845439 L200.43157,33.4279474 L197.408203,33.4279474 L197.408203,33.1845439 C197.588811,33.134193 197.71441,33.0678772 197.784755,32.9865789 C197.854856,32.9055263 197.890394,32.7861579 197.890394,32.6289649 L197.890394,23.8327895 C197.890394,23.6805088 197.854856,23.5640877 197.784755,23.4827895 C197.71441,23.4017368 197.588811,23.3356667 197.408203,23.2848246 L197.408203,23.0414211 L200.907189,23.0414211 L200.907189,23.2848246 C200.690556,23.3405789 200.58297,23.4574912 200.58297,23.6350702 C200.58297,23.7566491 200.653071,23.8912456 200.793761,24.0381228 L206.471976,29.9962281 L206.471976,23.8327895 C206.471976,23.6805088 206.436682,23.5640877 206.366337,23.4827895 C206.295748,23.4017368 206.170394,23.3356667 205.989055,23.2848246 L205.989055,23.0414211 L209.013152,23.0414211 L209.013152,23.2848246 C208.832057,23.3356667 208.706702,23.4017368 208.63587,23.4827895 C208.565525,23.5640877 208.530475,23.6805088 208.530475,23.8327895 L208.530475,32.6289649 C208.530475,32.7861579 208.565525,32.9055263 208.63587,32.9865789 C208.706702,33.0678772 208.832057,33.134193 209.013152,33.1845439 L209.013152,33.4279474 L205.770475,33.4279474 L205.770475,33.1845439 C205.981753,33.1388596 206.087391,33.029807 206.087391,32.8576316 C206.087391,32.7557018 205.963984,32.5783684 205.717655,32.3246491 L199.949136,26.3132456 Z" id="Fill-246" fill="#034162"></path>
                <path d="M219.164081,28.5808526 L217.613331,29.8440456 L217.613331,32.6288175 C217.613331,32.7862561 217.649598,32.906607 217.722621,32.9903614 C217.7954,33.0741158 217.920024,33.1389579 218.095765,33.1843965 L218.095765,33.4278 L214.883513,33.4278 L214.883513,33.1843965 C215.064365,33.1338 215.190207,33.0679754 215.260552,32.9866772 C215.330897,32.9053789 215.365947,32.7862561 215.365947,32.6288175 L215.365947,23.8328877 C215.365947,23.680607 215.330897,23.5639404 215.260552,23.4826421 C215.190207,23.4015895 215.064365,23.3360105 214.883513,23.2849228 L214.883513,23.0415193 L218.095765,23.0415193 L218.095765,23.2849228 C217.914913,23.330607 217.789314,23.3952035 217.71897,23.4789579 C217.648381,23.5624667 217.613331,23.680607 217.613331,23.8326421 L217.613331,27.4679754 L221.851546,23.9773088 C222.047732,23.8152035 222.145582,23.6855193 222.145582,23.5892386 C222.145582,23.4421158 221.999781,23.3406772 221.708178,23.2849228 L221.708178,23.0415193 L225.915724,23.0415193 L225.915724,23.2849228 C225.73974,23.3205368 225.614142,23.3610632 225.538199,23.4067474 C225.463229,23.452186 225.244406,23.6248526 224.882458,23.9240105 L224.301688,24.4108175 L220.801972,27.247414 L224.769517,32.0656246 C225.136333,32.5123965 225.401647,32.8002561 225.564974,32.9294491 C225.7283,33.0586421 225.933493,33.1438702 226.179578,33.1843965 L226.179578,33.4278 L222.156779,33.4278 L222.156779,33.1843965 C222.423554,33.1286421 222.556698,33.0321158 222.556698,32.8950632 C222.556698,32.8240807 222.435968,32.6366772 222.194507,32.3321158 L219.164081,28.5808526 Z" id="Fill-248" fill="#034162"></path>
                <g id="Group-252" transform="translate(229.776876, 22.724211)">
                    <mask id="mask-8" fill="white">
                        <use xlink:href="#path-7"></use>
                    </mask>
                    <g id="Clip-251"></g>
                    <path d="M10.07686,1.19692632 L8.84765112,3.64250526 L8.63661663,3.5206807 C8.64172819,3.47008421 8.64391886,3.42931228 8.64391886,3.39885614 C8.64391886,3.2266807 8.49836105,3.04124211 8.20651521,2.84352281 C7.31199189,2.21450526 6.26120081,1.89987368 5.0546288,1.89987368 C4.52180933,1.89987368 4.05178905,1.96569825 3.64456795,2.09759298 C3.34785396,2.19878596 3.10785396,2.35082105 2.92432454,2.55345263 C2.74079513,2.75632982 2.64903043,2.97664561 2.64903043,3.21489123 C2.64903043,3.60517193 2.88294523,3.87117193 3.35053144,4.01313684 C3.59174848,4.08387368 4.10947667,4.15976842 4.90395943,4.24106667 L6.08765112,4.36264561 C6.79158621,4.43878596 7.36091684,4.5426807 7.79588641,4.67432982 C8.23061258,4.80622456 8.61641379,4.99117193 8.95329006,5.22941754 C9.29503448,5.47797895 9.56521704,5.80489123 9.76383773,6.21015439 C9.96245842,6.61566316 10.0617688,7.04917193 10.0617688,7.51043509 C10.0617688,8.2404 9.82834077,8.88906667 9.36051116,9.45692632 C8.93819878,9.97394386 8.28221501,10.3566105 7.39231643,10.6051719 C6.72878702,10.7923298 6.01730629,10.8861544 5.25836105,10.8861544 C3.8955213,10.8861544 2.55118053,10.5565404 1.2238783,9.89706667 C0.942498986,9.76541754 0.773817444,9.69910175 0.718807302,9.69910175 C0.653330629,9.69910175 0.550125761,9.75510175 0.409436105,9.86661053 L0.190855984,9.75264561 L1.30688032,7.20341754 L1.52546045,7.31001404 L1.52546045,7.40899649 C1.52546045,7.63717193 1.63353347,7.84766316 1.84992292,8.04047018 C2.17657606,8.3349614 2.68189047,8.58843509 3.36562272,8.80138246 C4.04911156,9.01432982 4.6975497,9.12117193 5.31118053,9.12117193 C5.97957809,9.12117193 6.55036917,9.00720702 7.02282353,8.77927719 C7.284,8.65278596 7.49284381,8.48454035 7.64862475,8.27404912 C7.80440568,8.06404912 7.88229615,7.8449614 7.88229615,7.61727719 C7.88229615,7.27292632 7.69876673,7.02755789 7.33219473,6.8806807 C7.075643,6.77948772 6.5576714,6.68566316 5.77852333,6.59969825 L4.61722515,6.4781193 C3.83807708,6.39682105 3.28748884,6.31945263 2.96594726,6.24601404 C2.64416227,6.17232982 2.32237728,6.05418947 2.00059229,5.89159298 C1.54274239,5.66341754 1.18371602,5.32078596 0.922539554,4.86369825 C0.685947262,4.45254035 0.568381339,3.98022456 0.568381339,3.44724211 C0.568381339,2.56917193 0.867042596,1.84313684 1.46533874,1.26938246 C2.24959838,0.512891228 3.42598783,0.134645614 4.99426369,0.134645614 C5.65292495,0.134645614 6.26631237,0.202435088 6.83442596,0.337277193 C7.40229615,0.472364912 8.11109939,0.720680702 8.9608357,1.08222456 C9.25219473,1.19938246 9.43085598,1.25808421 9.49608925,1.25808421 C9.60172819,1.25808421 9.72489249,1.19938246 9.86582556,1.08222456 L10.07686,1.19692632 Z" id="Fill-250" fill="#034162" mask="url(#mask-8)"></path>
                </g>
            </g>
        </g>
    </g>
</svg>